<svg xmlns="http://www.w3.org/2000/svg" viewBox="0 0 1024 576" fill="none">
  <defs>
    <linearGradient id="bg" x1="0" y1="0" x2="1" y2="1">
      <stop offset="0%" stop-color="#0b1220"/>
      <stop offset="100%" stop-color="#111827"/>
    </linearGradient>
    <linearGradient id="body" x1="0" y1="0" x2="1" y2="1">
      <stop offset="0%" stop-color="#111827"/>
      <stop offset="100%" stop-color="#1f2937"/>
    </linearGradient>
    <linearGradient id="neon" x1="0" y1="0" x2="1" y2="1">
      <stop offset="0%" stop-color="#22d3ee"/>
      <stop offset="100%" stop-color="#84cc16"/>
    </linearGradient>
    <filter id="glow" x="-20%" y="-20%" width="140%" height="140%">
      <feGaussianBlur stdDeviation="6" result="b"/>
      <feMerge><feMergeNode in="b"/><feMergeNode in="SourceGraphic"/></feMerge>
    </filter>
  </defs>
  <rect width="1024" height="576" rx="28" fill="url(#bg)"/>
  <ellipse cx="512" cy="510" rx="360" ry="28" fill="#0f172a"/>

  <path d="M180 330c85-25 130-70 190-82 64-12 151 11 238-3 53-9 98-42 152-38 35 3 55 30 55 56 0 29-23 56-61 62-37 6-78-7-122 5-66 18-99 49-177 57-86 9-179-7-252-29-56-17-86-14-114-3-14 6-30-1-33-13-4-15 2-25 24-32z" fill="url(#body)" stroke="#0ea5e9" stroke-opacity=".35" stroke-width="6"/>
  <path d="M706 220c19-19 41-31 64-27 23 5 38 24 38 46 0 17-8 34-24 47" stroke="url(#neon)" stroke-width="14" stroke-linecap="round" filter="url(#glow)"/>
  <path d="M329 273c-20-31-57-46-98-43" stroke="#22d3ee" stroke-width="12" stroke-linecap="round" filter="url(#glow)"/>

  <path d="M690 260c20-8 44-7 63 5" stroke="#84cc16" stroke-width="10" stroke-linecap="round"/>
  <circle cx="776" cy="250" r="10" fill="#22d3ee"/>

  <path d="M300 388l-42 94" stroke="#0f172a" stroke-width="30" stroke-linecap="round"/>
  <path d="M420 404l-58 86" stroke="#0f172a" stroke-width="30" stroke-linecap="round"/>
  <path d="M620 395l-35 95" stroke="#0f172a" stroke-width="30" stroke-linecap="round"/>
  <path d="M760 375l-56 102" stroke="#0f172a" stroke-width="30" stroke-linecap="round"/>

  <rect x="228" y="468" width="62" height="22" rx="11" fill="#f59e0b" filter="url(#glow)"/>
  <rect x="340" y="478" width="62" height="22" rx="11" fill="#f59e0b" filter="url(#glow)"/>
  <rect x="555" y="478" width="62" height="22" rx="11" fill="#f59e0b" filter="url(#glow)"/>
  <rect x="674" y="488" width="62" height="22" rx="11" fill="#f59e0b" filter="url(#glow)"/>

  <path d="M188 445l-80-22 58 2-48-10" stroke="#f59e0b" stroke-width="10" stroke-linecap="round" filter="url(#glow)"/>
  <path d="M760 246l58-8" stroke="#22d3ee" stroke-width="6" stroke-linecap="round" filter="url(#glow)"/>
</svg>
